Coordinates
version=1
nRows=38
nColumns=12
inDegrees=yes

Units are S.I. units (second, meters, Newtons, ...)
Angles are in degrees

endheader
time	SC_y	SC_z	SC_x	AC_y	AC_z	AC_x	GH_y	GH_z	GH_yy	EL_x	PS_y
       0.0              -40.33         -2.234           21.8          41.37         -6.213          4.842          43.74          19.64         -74.74          115.6          8.552
   0.01725              -40.33         -2.231           21.8          41.37         -6.211          4.843          43.74          19.64         -74.71          115.6          8.572
   0.03449              -40.32         -2.228           21.8          41.37         -6.209          4.843          43.74          19.63         -74.67          115.6          8.594
   0.05174              -40.32         -2.225           21.8          41.37         -6.207          4.843          43.73          19.63         -74.64          115.6          8.616
   0.06899              -40.32         -2.222          21.81          41.37         -6.205          4.844          43.73          19.63          -74.6          115.6          8.641
   0.08624              -40.31         -2.218          21.81          41.38         -6.203          4.844          43.73          19.63         -74.56          115.6          8.667
    0.1035              -40.31         -2.215          21.81          41.38         -6.201          4.845          43.72          19.63         -74.51          115.6          8.694
    0.1207               -40.3          -2.21          21.82          41.38         -6.198          4.845          43.72          19.63         -74.46          115.5          8.724
     0.138               -40.3         -2.206          21.82          41.38         -6.195          4.845          43.71          19.63         -74.41          115.5          8.756
    0.1552              -40.29         -2.202          21.82          41.38         -6.193          4.846          43.71          19.62         -74.36          115.5           8.79
    0.1725              -40.28         -2.197          21.83          41.39         -6.189          4.847           43.7          19.62          -74.3          115.5          8.826
    0.1897              -40.28         -2.191          21.83          41.39         -6.186          4.847           43.7          19.62         -74.24          115.4          8.865
     0.207              -40.27         -2.185          21.84          41.39         -6.183          4.848          43.69          19.62         -74.17          115.4          8.908
    0.2242              -40.26         -2.179          21.84           41.4         -6.179          4.848          43.69          19.61          -74.1          115.4          8.953
    0.2415              -40.25         -2.172          21.85           41.4         -6.174          4.849          43.68          19.61         -74.02          115.3          9.003
    0.2587              -40.24         -2.165          21.86          41.41          -6.17           4.85          43.67          19.61         -73.93          115.3          9.056
     0.276              -40.23         -2.157          21.86          41.41         -6.165          4.851          43.66           19.6         -73.84          115.3          9.115
    0.2932              -40.22         -2.148          21.87          41.41          -6.16          4.852          43.65           19.6         -73.74          115.2          9.178
    0.3104              -40.21         -2.139          21.88          41.42         -6.154          4.853          43.64           19.6         -73.62          115.2          9.248
    0.3277              -40.19         -2.128          21.89          41.43         -6.147          4.854          43.63          19.59          -73.5          115.1          9.324
    0.3449              -40.18         -2.117           21.9          41.43          -6.14          4.855          43.62          19.59         -73.37          115.1          9.407
    0.3622              -40.16         -2.104          21.91          41.44         -6.132          4.857          43.61          19.58         -73.22          115.0          9.499
    0.3794              -40.14         -2.091          21.92          41.45         -6.124          4.858          43.59          19.57         -73.06          115.0            9.6
    0.3967              -40.12         -2.075          21.93          41.46         -6.114           4.86          43.58          19.57         -72.88          114.9          9.712
    0.4139               -40.1         -2.058          21.95          41.47         -6.104          4.862          43.56          19.56         -72.68          114.8          9.837
    0.4312              -40.08         -2.039          21.96          41.48         -6.092          4.864          43.54          19.55         -72.45          114.7          9.977
    0.4484              -40.05         -2.018          21.98          41.49         -6.079          4.866          43.51          19.54          -72.2          114.6          10.13
    0.4657              -40.02         -1.994           22.0           41.5         -6.064          4.869          43.49          19.53         -71.92          114.5          10.31
    0.4829              -39.98         -1.966          22.03          41.52         -6.047          4.872          43.46          19.52          -71.6          114.3          10.51
    0.5002              -39.94         -1.936          22.05          41.53         -6.028          4.875          43.43          19.51         -71.24          114.2          10.73
    0.5174               -39.9           -1.9          22.08          41.55         -6.006          4.879          43.39          19.49         -70.83          114.0          10.99
    0.5347              -39.84          -1.86          22.12          41.58         -5.981          4.884          43.35          19.47         -70.35          113.8          11.28
    0.5519              -39.78         -1.813          22.16           41.6         -5.952          4.889           43.3          19.45         -69.81          113.6          11.62
    0.5692              -39.71         -1.759           22.2          41.63         -5.919          4.895          43.24          19.43         -69.17          113.3          12.02
    0.5864              -39.63         -1.696          22.26          41.67         -5.879          4.902          43.17           19.4         -68.43          113.0          12.48
    0.6036              -39.53         -1.621          22.32          41.71         -5.833           4.91          43.09          19.37         -67.55          112.7          13.03
    0.6209              -39.41         -1.532           22.4          41.76         -5.778           4.92           43.0          19.33         -66.51          112.2          13.68
    0.6381              -39.27         -1.426          22.49          41.82         -5.712          4.932          42.89          19.29         -65.26          111.7          14.46
